<?xml version="1.0" encoding="UTF-8"?>
<svg width="350px" height="350px" viewBox="0 0 350 350" version="1.1" xmlns="http://www.w3.org/2000/svg" xmlns:xlink="http://www.w3.org/1999/xlink">
    <title>编组备份 8</title>
    <defs>
        <radialGradient cx="68.0616028%" cy="39.9559374%" fx="68.0616028%" fy="39.9559374%" r="158.497059%" gradientTransform="translate(0.6806, 0.3996), scale(1, 1), rotate(180), translate(-0.6806, -0.3996)" id="radialGradient-1">
            <stop stop-color="#FFD73A" offset="0%"></stop>
            <stop stop-color="#FEC43C" offset="100%"></stop>
        </radialGradient>
    </defs>
    <g id="Snore-logo-2" stroke="none" stroke-width="1" fill="none" fill-rule="evenodd">
        <g id="8322718_emoji_face_sleep_sleeping_snore_icon备份-9" transform="translate(10, 10)">
            <path d="M164.999965,0 C73.8692453,0 0,73.8732007 0,164.99986 C0,256.13058 73.8692453,330.003955 164.999965,330.003955 C256.126625,330.003955 330,256.13058 330,164.99986 C330,73.8732007 256.126625,0 164.999965,0 L164.999965,0 Z" id="路径" stroke="#FFFFFF" stroke-width="20" fill="url(#radialGradient-1)"></path>
            <path d="M178.658832,225.933171 C135.685018,230.185475 116.646912,141.546196 122.720587,109.972504 C127.099189,87.2213986 203.161866,83.9417112 212.417764,93.3198466 C229.858668,110.993853 224.042055,221.440454 178.658832,225.933171 Z" id="路径" fill="#282829"></path>
            <path d="M179.068184,229.988109 C175.74748,230.319083 172.553074,230.15989 169.497962,229.571447 C153.858125,226.565473 141.816766,212.432684 133.300381,194.387094 C125.090604,177.003451 120.066705,155.824776 118.285537,137.808019 C117.174846,126.583333 117.317794,116.494517 118.718443,109.203751 C119.372269,105.796954 121.169274,102.778796 123.852802,100.131817 C131.36855,92.7184081 146.510098,88.1233532 162.301005,85.9259302 C177.756877,83.7813005 194.070439,83.8588662 204.29002,85.8235922 C209.358997,86.7998637 213.255961,88.3519892 215.334802,90.4596635 C220.281136,95.47138 223.549046,106.258693 224.87619,119.688923 C226.428316,135.377492 225.493061,155.085669 221.616808,173.351773 C217.683295,191.924079 210.666242,209.177363 200.071016,219.629641 C194.180899,225.442192 187.208517,229.183619 179.068184,229.988109 L179.068184,229.988109 Z M171.033843,221.549696 C173.353909,221.998845 175.771846,222.117428 178.267349,221.872141 C184.398285,221.263799 189.753159,218.351229 194.348213,213.813434 C203.681678,204.602613 209.98805,188.832418 213.627545,171.656699 C217.332016,154.186963 218.234783,135.401859 216.760223,120.485291 C215.608515,108.836228 213.117073,99.8256158 209.518595,96.1820602 C208.664561,95.3162487 206.250685,94.5198808 202.754544,93.8457499 C193.306965,92.0320941 178.034652,91.9829557 163.420225,94.0130643 C149.136366,95.9980955 135.706135,99.9031815 129.575199,105.94843 C128.060029,107.443295 127.067513,109.044559 126.7406,110.735572 C125.478433,117.299414 125.37244,126.563028 126.405972,137.007184 C128.105106,154.199146 132.88372,174.380838 140.685364,190.903137 C148.172278,206.767548 158.355309,219.111047 171.033843,221.549696 L171.033843,221.549696 Z" id="形状" fill="#FED785" fill-rule="nonzero"></path>
            <path d="M245.551704,58.6585537 C248.52519,59.1040487 250.579664,61.8854478 250.130515,64.8589336 C249.685426,67.8368865 246.907682,69.8873003 243.930135,69.4418053 C237.795138,68.5065502 230.671686,67.1546335 223.637983,65.0266541 C216.408132,62.8373531 209.24407,59.8187898 203.219126,55.5790751 C200.76464,53.851107 200.172136,50.4528375 201.900104,47.9938842 C203.627666,45.5349308 207.025935,44.9428327 209.484889,46.6744557 C214.414978,50.1466359 220.52561,52.691277 226.791372,54.5865594 C233.244754,56.5386963 239.845551,57.7927422 245.551704,58.6585537 L245.551704,58.6585537 Z" id="路径" fill="#2B2A29" fill-rule="nonzero"></path>
            <path d="M93.5189426,86.402695 C90.5860671,87.0845419 87.6576587,85.2627641 86.9754058,82.3302947 C86.2931528,79.4014802 88.1149307,76.4730718 91.0478062,75.7908189 C96.676393,74.4632683 103.158608,72.6825069 109.419904,70.2235535 C115.514291,67.8259217 121.404002,64.7992364 126.031951,60.9473499 C128.335773,59.0317623 131.76247,59.3464921 133.678463,61.6539691 C135.598112,63.9577911 135.283382,67.3848939 132.975905,69.3004815 C127.306302,74.0181795 120.403364,77.6085357 113.386311,80.3655686 C106.528044,83.0572189 99.5434799,84.9809286 93.5189426,86.402695 L93.5189426,86.402695 Z" id="路径" fill="#2B2A29" fill-rule="nonzero"></path>
            <path d="M148.835444,113.280213 C148.545486,110.621457 149.697194,108.105243 151.408512,107.656093 C166.476556,103.411911 174.000425,102.129438 189.313349,102.252081 C191.024667,101.802931 192.646236,103.595876 192.9366,106.246916 C194.443648,123.741019 150.207666,129.577936 148.835444,113.280213 L148.835444,113.280213 Z" id="路径" fill="#E5E4E5" fill-rule="nonzero"></path>
            <path d="M155.130445,196.685636 C154.660584,197.784551 154.656523,198.862754 154.98303,199.908469 C157.172737,206.946234 181.451196,220.833736 186.365042,209.290666 C192.712431,192.826034 161.003912,181.332102 155.130445,196.685636 Z" id="路径" fill="#DE6C69" fill-rule="nonzero"></path>
        </g>
    </g>
</svg>