<?xml version="1.0" encoding="UTF-8"?>
<svg width="669px" height="164px" viewBox="0 0 669 164" version="1.1" xmlns="http://www.w3.org/2000/svg" xmlns:xlink="http://www.w3.org/1999/xlink">
    <title>Snore备份 28</title>
    <defs>
        <linearGradient x1="50%" y1="0%" x2="50%" y2="100%" id="linearGradient-1">
            <stop stop-color="#8BE240" offset="0%"></stop>
            <stop stop-color="#4771CD" offset="100%"></stop>
        </linearGradient>
        <linearGradient x1="50%" y1="0%" x2="50%" y2="100%" id="linearGradient-2">
            <stop stop-color="#8BE240" offset="0%"></stop>
            <stop stop-color="#4771CD" offset="100%"></stop>
        </linearGradient>
        <linearGradient x1="50%" y1="0%" x2="50%" y2="100%" id="linearGradient-3">
            <stop stop-color="#8BE240" offset="0%"></stop>
            <stop stop-color="#4771CD" offset="100%"></stop>
        </linearGradient>
        <linearGradient x1="50%" y1="0%" x2="50%" y2="100%" id="linearGradient-4">
            <stop stop-color="#8BE240" offset="0%"></stop>
            <stop stop-color="#4771CD" offset="100%"></stop>
        </linearGradient>
        <linearGradient x1="50%" y1="0%" x2="50%" y2="100%" id="linearGradient-5">
            <stop stop-color="#8BE240" offset="0%"></stop>
            <stop stop-color="#4771CD" offset="100%"></stop>
        </linearGradient>
    </defs>
    <g id="Snore-logo-2" stroke="none" stroke-width="1" fill="none" fill-rule="evenodd">
        <g id="Snore备份-28" transform="translate(15.475, 15.3)" fill="#FFFFFF" fill-rule="nonzero" stroke-width="15">
            <path d="M68.825,-7.5 C74.2609798,-7.5 79.4969184,-7.16920996 84.5331046,-6.51192992 C89.8340438,-5.82009659 94.6121772,-4.69845142 98.8744851,-3.17486327 C103.850624,-1.39611203 107.719805,0.979180747 110.591997,3.78609598 C114.28103,7.39128761 116.15,11.8139852 116.15,17.075 C116.15,22.6082561 114.649617,27.0007206 112.060847,30.4103193 C109.508499,33.7719488 106.202164,36.2559237 102.114482,37.8261917 C98.5410058,39.1989296 94.7297166,39.9 90.675,39.9 C88.5890706,39.9 86.4080308,39.5574304 84.1391892,38.8226351 C82.8150181,38.3937843 81.3135495,37.970462 79.6358087,37.5491459 C78.2721349,37.2066987 76.5897009,37.075 74.6,37.075 C73.1285387,37.075 71.6962905,37.1814627 70.303561,37.3982555 C69.2277463,37.5657172 68.2547785,37.8191144 67.3957737,38.1952467 C68.0301855,39.2702031 68.8461703,39.9238517 69.8352216,40.5496673 C71.4301524,41.5588492 73.3189858,42.5272482 75.4920787,43.4726848 C77.963459,44.5478957 80.667752,45.6466356 83.6045132,46.7699869 C88.1640407,48.5430125 92.6587496,50.6759369 97.1257127,53.1874824 C101.780914,55.8048647 106.01823,58.859355 109.841307,62.3459264 C113.933986,66.0783697 117.189155,70.3358169 119.620296,75.1080566 C122.160254,80.0938998 123.475,85.6836555 123.475,91.9 C123.475,100.402225 121.122647,107.641787 116.610002,113.686633 C112.354139,119.38751 106.585773,124.079823 99.2224587,127.667332 C92.4509403,130.966511 84.7648954,133.402726 76.15025,134.934219 C67.8577677,136.408438 59.1662895,137.15 50.075,137.15 C43.7551841,137.15 37.4879082,136.773354 31.2731411,136.020579 C24.8265117,135.23972 18.9593149,133.966731 13.6664669,132.223632 C7.6183809,130.231809 2.83814161,127.459805 -0.773826227,124.065176 C-5.24812554,119.860104 -7.5,114.659318 -7.5,108.45 C-7.5,102.203219 -5.79368141,97.4872251 -2.98621723,94.0462181 C-0.166371586,90.5900356 3.55183834,88.1244623 8.24413819,86.7605672 C12.0144408,85.6646659 16.0897189,85.1 20.475,85.1 C21.7831756,85.1 23.6821433,85.3331935 26.1603904,85.940607 C27.7811436,86.3378505 29.6324319,86.7503769 31.713979,87.1793981 C33.4165093,87.5303013 35.203922,87.7 37.075,87.7 C40.2961877,87.7 43.1477506,87.5885365 45.6292553,87.3573404 C47.5175434,87.181413 49.1279635,86.8828806 50.4388497,86.3773371 C50.7841198,86.2441836 51.1365793,86.1490857 51.3293964,85.8864556 C51.4547703,85.7156876 51.325,85.4474504 51.325,85.225 C50.772553,84.4441702 49.9668687,83.8316071 48.990825,83.227598 C47.4558351,82.277694 45.6438525,81.3934983 43.5657657,80.5540062 C41.1214057,79.5665496 38.4425092,78.5389756 35.5284188,77.4708706 C30.6505575,75.7512295 26.0536846,73.7494808 21.7359154,71.4699132 C17.1387854,69.042857 13.0909158,66.2453108 9.57946637,63.095474 C5.78014508,59.6874108 2.81279916,55.8276627 0.651461948,51.5358645 C-1.60690299,47.051397 -2.775,42.0625733 -2.775,36.55 C-2.775,29.5968785 -1.00300639,23.5267763 2.40182818,18.2960052 C5.60139658,13.3805799 9.88508733,9.16275474 15.2990806,5.68810234 C20.3020723,2.47722708 25.920742,-0.120248898 32.1663039,-2.08073916 C38.1368487,-3.95490122 44.3079169,-5.33071664 50.6801498,-6.20533685 C56.9844919,-7.0706387 63.0329181,-7.5 68.825,-7.5 Z" id="路径" stroke="url(#linearGradient-1)"></path>
            <path d="M190.025,23.975 C203.992065,23.975 216.306949,26.7758765 227.003357,32.2480307 C238.025635,37.8868954 246.6677,46.1672805 252.91321,57.1063853 C258.991369,67.7523732 262.15,80.7598244 262.15,96.2 C262.15,98.7294496 262.036265,101.114612 261.813085,103.355712 C261.582495,105.671216 261.243234,107.837257 260.801295,109.854807 C260.335202,111.982621 259.744075,113.977586 259.034864,115.841796 C256.629431,121.969991 253.081775,126.477904 248.547674,129.593703 C243.981518,132.731529 238.53781,134.4 232.15,134.4 C225.180615,134.4 219.85232,133.265329 216.050646,131.385496 C211.398485,129.085118 208.105609,125.707805 206.068681,121.352109 C204.464028,117.920775 203.287807,113.813633 202.621072,109.005061 C202.237077,104.971498 201.900057,101.645171 201.571126,98.6930153 C201.25499,95.8556948 200.908527,93.3106052 200.52916,91.0581151 C200.148565,88.7983296 199.760661,86.7366473 199.364206,84.8733073 C198.994429,83.13536 198.574097,81.4895232 198.100774,79.9364308 C197.327759,77.3497984 196.469603,75.3271282 195.119085,74.1111441 C194.151836,73.2402498 192.724548,73.1 191.1,73.1 C189.603353,73.1 188.294512,73.4237029 187.275324,74.3231999 C185.69153,75.7209966 184.494551,77.8673435 183.443576,80.5842232 C182.819848,82.1943126 182.257144,83.9576317 181.749489,85.8722131 C181.213224,87.8946996 180.728564,90.1090915 180.2919,92.5145726 C179.838492,95.0122916 179.425604,97.7209152 179.051744,100.64021 C178.661975,103.683725 178.251485,106.980177 177.820251,110.529563 C177.02519,116.937017 174.865573,121.754401 171.768209,125.2216 C168.600594,128.767438 164.699657,131.242208 160.052502,132.625712 C156.127814,133.79413 151.820897,134.4 147.125,134.4 C140.555072,134.4 135.200192,133.018646 130.964605,130.564178 C126.334,127.880802 122.718212,123.5897 120.420836,117.415503 C119.717466,115.146105 119.276856,113.095401 118.968161,110.821347 C118.689486,108.768441 118.495948,106.492829 118.393763,103.993935 C118.295208,101.583813 118.297336,98.9912362 118.403478,96.2134624 C118.759657,81.1250156 122.003538,68.29937 127.940918,57.6779552 C134.071589,46.710762 142.554618,38.3390395 153.368116,32.5403597 C163.931129,26.8760017 176.137666,23.975 190.025,23.975 Z" id="路径" stroke="url(#linearGradient-2)"></path>
            <path d="M333.825,14.675 C343.306276,14.675 352.240086,15.8584007 360.629831,18.2014016 C369.333163,20.6319774 376.996985,24.3626067 383.641548,29.3530378 C390.510424,34.5119407 395.89509,41.0318981 399.779483,48.9262979 C403.588089,56.6666733 405.575,65.8187028 405.575,76.425 C405.575,85.1260501 403.583388,93.2813914 399.612038,100.893955 C395.746183,108.304298 390.418325,114.823482 383.601643,120.42999 C376.947834,125.90254 369.267826,130.217852 360.544958,133.347008 C351.882082,136.454643 342.60242,138.025 332.7,138.025 C323.797301,138.025 315.211998,137.061407 306.942996,135.14357 C298.356046,133.15199 290.676496,129.998302 283.888416,125.719866 C276.728442,121.207031 271.06292,115.332485 266.882702,108.105005 C262.719471,100.906897 260.525,92.1943818 260.525,81.9 C260.525,71.0423389 262.497776,61.466332 266.322659,53.1432361 C270.20603,44.6928699 275.585613,37.5856301 282.439338,31.8045801 C289.180643,26.1183547 296.997499,21.8123181 305.907193,18.9171346 C314.57698,16.0999079 323.881119,14.675 333.825,14.675 Z M330.875,60.375 C328.149052,60.375 325.610366,60.9119223 323.267926,62.0245813 C321.205107,63.0044202 319.549428,64.4583429 318.29659,66.3814244 C316.98858,68.3891928 316.475,70.909795 316.475,73.85 C316.475,76.2708315 316.933134,78.4087398 318.017066,80.2135652 C319.01957,81.8828064 320.483094,83.1355916 322.345777,84.0382767 C324.677417,85.1682249 327.459649,85.65 330.65,85.65 C333.645296,85.65 336.233046,85.2727806 338.376887,84.3608932 C340.234072,83.5709355 341.785104,82.548327 342.971865,81.2145334 C344.192148,79.8430646 345.108252,78.3371234 345.697349,76.6833284 C346.309763,74.9640744 346.625,73.2289836 346.625,71.475 C346.625,69.6236834 346.350745,68.0020126 345.593601,66.6711318 C344.844045,65.3535902 343.848888,64.2766845 342.600514,63.4475408 C341.054611,62.4207843 339.328582,61.6760846 337.432126,61.1918828 C335.295133,60.6462676 333.109294,60.375 330.875,60.375 Z" id="形状" stroke="url(#linearGradient-3)"></path>
            <path d="M472.825,17.9 C478.79182,17.9 484.623649,18.3914676 490.320788,19.3709442 C496.267135,20.3932656 501.612078,21.9806294 506.366058,24.0997605 C511.695612,26.4754589 515.907676,29.5386278 519.086865,33.1794811 C522.819707,37.4543862 524.725,42.5262987 524.725,48.425 C524.725,54.1382378 523.313338,58.4797994 521.03889,61.6615407 C518.566987,65.119504 515.36722,67.4970379 511.468049,68.83274 C508.280538,69.9246555 504.966681,70.475 501.525,70.475 C496.840625,70.475 492.472438,69.9120293 488.416421,68.8147491 C485.523707,68.0321792 482.131481,67.675 478.25,67.675 C475.356704,67.675 472.935003,68.2928435 471.221709,70.0345344 C469.354772,71.9324157 468.85,74.9209526 468.85,78.575 C468.85,80.6893651 468.949804,82.7591073 469.15082,84.7841557 C469.359106,86.882445 469.624741,88.9075218 469.948743,90.8592501 C470.295566,92.9484442 470.638253,94.9674491 470.976818,96.9162626 C471.337347,98.9915034 471.635863,100.930513 471.873284,102.733153 C472.14431,104.790949 472.275,106.713426 472.275,108.5 C472.275,117.667316 469.750701,124.258619 465.584887,128.703644 C461.324309,133.249782 454.768046,136.05 445.35,136.05 C441.185353,136.05 437.500034,135.459569 434.278988,134.361 C430.877188,133.200783 427.896601,131.55176 425.318744,129.446698 C422.910141,127.479848 420.743142,125.165457 418.828493,122.493363 C416.758264,119.366672 415.059367,116.105513 413.585399,112.463946 C412.178286,108.98755 410.99869,105.309541 410.051388,101.428364 C409.122756,97.6236761 408.418926,93.7334337 407.941084,89.7574208 C407.462692,85.7768381 407.225,81.8909728 407.225,78.1 C407.225,65.3582944 410.111853,54.5632624 415.654375,45.6420796 C421.275845,36.5938235 429.107357,29.648349 439.191012,24.8521119 C448.84022,20.2625171 460.040402,17.9 472.825,17.9 Z" id="路径" stroke="url(#linearGradient-4)"></path>
            <path d="M586.825,19.225 C592.96433,19.225 598.981957,19.7620789 604.878149,20.8332955 C611.097445,21.9632133 616.721414,23.8266778 621.76185,26.3896115 C627.344151,29.2280698 631.755756,33.0155797 635.053022,37.6884574 C638.499355,42.5725921 640.35,48.5302592 640.35,55.65 C640.35,61.4000957 639.236429,66.2109043 637.23209,70.1433297 C635.15336,74.2217081 632.285532,77.5900892 628.637154,80.2557769 C625.38905,82.6290048 621.665513,84.5800635 617.450405,86.0789919 C615.983317,86.600701 614.481414,87.0946568 612.944676,87.5606303 L612.374,87.729 L612.835948,87.64591 C615.703367,87.147777 618.578182,86.8769023 621.460184,86.8317692 L622.325,86.825 C628.644119,86.825 633.612456,88.1879491 637.369301,90.5007212 C641.896915,93.2879912 645.1,98.3326354 645.1,107 C645.1,113.1874 643.01982,118.640796 638.819532,123.345118 C635.255497,127.336838 630.456809,130.728907 624.325016,133.391799 C618.810166,135.786767 612.520293,137.604171 605.443814,138.80653 C598.61748,139.966387 591.494757,140.55 584.075,140.55 C571.374427,140.55 560.238456,138.534421 550.641925,134.619328 C540.374272,130.430437 532.428381,123.998108 526.735166,115.40476 C521.136708,106.954438 518.175,96.3064872 518.175,83.35 C518.175,72.8809945 520.036987,63.6997061 523.632813,55.7757462 C527.29867,47.6974615 532.375029,40.9276221 538.833826,35.4448213 C545.184707,30.0536295 552.521667,25.9755468 560.85968,23.2369894 C568.974415,20.571766 577.627954,19.225 586.825,19.225 Z M599.752,91.062 L599.728251,91.0679374 C598.144349,91.4252752 596.442313,91.7707686 594.621793,92.1030856 C590.245154,92.9019959 585.88152,93.5401014 581.530936,94.0177104 C580.583397,94.1217317 579.668296,94.2144106 578.785642,94.2959126 L578.753,94.298 L579.102837,94.3361578 C580.069853,94.4325287 581.107654,94.4840662 582.215338,94.4968244 L582.775,94.5 C586.273518,94.5 589.853163,93.9500205 593.517645,92.8771494 C594.61721,92.5552235 595.719127,92.2335587 596.823396,91.9121552 L599.752,91.062 Z M584.9,57.025 C583.311941,57.025 581.749714,57.3028829 580.211265,57.8465044 C578.630536,58.4050657 577.201658,59.1685438 575.933011,60.1521646 L575.603977,60.415501 C574.743267,61.126857 574.016972,61.9118367 573.44213,62.7853168 L573.372,62.897 L573.474264,62.9046751 C574.912394,63.0037937 576.571123,63.05 578.45,63.05 C580.911924,63.05 583.373215,62.7301614 585.834823,62.098127 C587.723931,61.6130858 589.33775,60.8905726 590.615724,59.817896 C590.940991,59.5448804 591.05,59.1719117 591.05,58.75 C591.05,58.5294653 591.076684,58.3127127 591.04426,58.1241412 C589.396868,57.312573 587.326387,57.025 584.9,57.025 Z" id="形状" stroke="url(#linearGradient-5)"></path>
        </g>
    </g>
</svg>